<?xml version="1.0" encoding="UTF-8"?><svg id="uuid-eafd2dab-78f9-4867-bcf7-05e52f9c39d6" xmlns="http://www.w3.org/2000/svg" viewBox="0 0 290 55"><path d="M277.18,18.84c-2.77-1.71-6.13-3-9.98-3s-6.74,1.56-6.74,4.24,3.04,3.38,7.26,4.08l1.99.33c6.29,1.03,11.21,3.73,11.21,9.88,0,7.79-6.84,11.49-14.4,11.49-5.33,0-11.06-1.56-14.83-4.61l3.65-5.67c2.54,2.04,6.68,3.8,11.21,3.8,3.9,0,6.91-1.53,6.91-4.26,0-2.45-2.56-3.35-7.46-4.13l-2.24-.35c-6.21-.98-10.73-3.73-10.73-10.11,0-7.36,6.53-11.19,14.02-11.19,4.92,0,9.02,1.11,13.44,3.76l-3.32,5.74h0Z" fill="#006"/><path d="M211.74,45.24V9.96h7.01v28.7h17.24v6.58s-24.25,0-24.25,0Z" fill="#006"/><path d="M132.94,32.4v12.9h-7.01V10.02h14.35c8.39,0,12.87,4.39,12.87,11.22s-4.47,11.16-12.82,11.16h-7.39,0ZM132.94,16.49v9.48h7.21c3.82,0,5.8-1.56,5.8-4.74s-1.99-4.74-5.8-4.74h-7.21Z" fill="#006"/><path d="M181.97,3c-13.53,0-24.5,10.97-24.5,24.5s10.97,24.5,24.5,24.5c2.36,0,4.64-.34,6.79-.96-.08-.61-.7-1.01-1.69-1.55-1.05-.58-2.24-1.24-2.22-2.6.02-1.36,1.24-1.98,2.31-2.52,1.09-.55,1.75-.94,1.76-1.65s-.64-1.12-1.7-1.71c-1.05-.58-2.24-1.24-2.22-2.6l1,.02c0,.71.63,1.12,1.7,1.71,1.05.58,2.24,1.24,2.22,2.6-.02,1.36-1.24,1.98-2.31,2.52-1.09.55-1.75.94-1.76,1.65s.63,1.12,1.7,1.71c.92.51,1.95,1.08,2.17,2.12,9.72-3.25,16.73-12.42,16.73-23.24,0-13.53-10.97-24.5-24.5-24.5h.02Z" fill="#4a7306"/><path d="M181.97,52c13.53,0,24.5-10.97,24.5-24.5s-10.97-24.5-24.5-24.5-24.5,10.97-24.5,24.5,10.97,24.5,24.5,24.5Z" fill="#4a7306"/><path d="M236.18,20.22v6.3h4.99v18.69h6.56v-25h-11.55Z" fill="#006"/><path d="M248.61,12.23c0,2.37-1.83,4.19-4.19,4.19s-4.17-1.82-4.17-4.19,1.81-4.23,4.17-4.23,4.19,1.86,4.19,4.23Z" fill="#006"/><path d="M171.1,17.43c0,.89-.69,1.57-1.57,1.57s-1.57-.68-1.57-1.57.68-1.59,1.57-1.59,1.57.7,1.57,1.59Z" fill="#f2f5f6"/><path d="M176.33,26.23h-5.08v9.37h5.08v-9.37Z" fill="#fff"/><rect x="172.54" y="28.51" width="2.5" height="1" fill="#006"/><rect x="172.54" y="30.51" width="2.5" height="1" fill="#006"/><rect x="172.54" y="32.51" width="2.5" height="1" fill="#006"/><path d="M184.53,22.91h-5.08v12.69h5.08v-12.69Z" fill="#fff"/><rect x="180.54" y="28.51" width="2.5" height="1" fill="#006"/><rect x="180.54" y="26.51" width="2.5" height="1" fill="#006"/><rect x="180.54" y="24.51" width="2.5" height="1" fill="#006"/><rect x="180.54" y="30.51" width="2.5" height="1" fill="#006"/><rect x="180.54" y="32.51" width="2.5" height="1" fill="#006"/><path d="M192.72,19.4h-5.08v16.2h5.08s0-16.2,0-16.2Z" fill="#fff"/><rect x="188.79" y="28.51" width="2.5" height="1" fill="#006"/><rect x="188.79" y="26.51" width="2.5" height="1" fill="#006"/><rect x="188.79" y="24.51" width="2.5" height="1" fill="#006"/><rect x="188.79" y="22.51" width="2.5" height="1" fill="#006"/><rect x="188.79" y="20.51" width="2.5" height="1" fill="#006"/><rect x="188.79" y="30.51" width="2.5" height="1" fill="#006"/><rect x="188.79" y="32.51" width="2.5" height="1" fill="#006"/><path d="M9.54,10.55h13.15c9.25,0,15.35,5.85,15.35,17.45s-6.1,17.45-15.35,17.45h-13.15s0-34.9,0-34.9ZM22.7,38.7c4.5,0,7.3-2.45,7.3-8v-5.4c0-5.55-2.8-8-7.3-8h-5.55v21.4h5.55Z" fill="#006"/><path d="M22.7,45.57h-13.28V10.42h13.28c9.83,0,15.48,6.41,15.48,17.58s-5.64,17.58-15.48,17.58h0ZM9.67,45.32h13.03c9.68,0,15.23-6.32,15.23-17.33s-5.55-17.33-15.23-17.33h-13.03v34.65h0ZM22.7,38.82h-5.67v-21.65h5.67c4.86,0,7.43,2.81,7.43,8.13v5.4c0,5.32-2.57,8.13-7.43,8.13h0ZM17.27,38.57h5.42c4.69,0,7.18-2.72,7.18-7.88v-5.4c0-5.15-2.48-7.88-7.18-7.88h-5.42v21.15h0Z" fill="#312783"/><path d="M63.4,45.45c-2.65,0-4.55-1.8-5-4.6h-.3c-.8,3.4-3.7,5.2-7.7,5.2-5.25,0-8.15-3.1-8.15-7.65,0-5.55,4.3-8.2,11.25-8.2h4.15v-1.65c0-2.55-1.25-4.15-4.35-4.15s-4.5,1.5-5.65,3.1l-4.4-3.9c2.1-3.1,5.1-5,10.6-5,7.4,0,11.2,3.4,11.2,9.6v11.5h2.45v5.75s-4.1,0-4.1,0ZM57.64,37.5v-3.1h-3.6c-2.85,0-4.35,1.05-4.35,2.95v.75c0,1.9,1.25,2.8,3.45,2.8,2.45,0,4.5-1,4.5-3.4Z" fill="#006"/><path d="M50.39,46.17c-5.1,0-8.28-2.98-8.28-7.78,0-5.37,4.04-8.33,11.38-8.33h4.02v-1.53c0-2.67-1.42-4.03-4.22-4.03-2.96,0-4.46,1.54-5.55,3.05l-.08.11-4.59-4.07.06-.09c2.37-3.5,5.67-5.05,10.7-5.05,7.41,0,11.33,3.36,11.33,9.73v11.38h2.45v6h-4.22c-2.66,0-4.61-1.76-5.11-4.6h-.1c-.82,3.31-3.66,5.2-7.8,5.2h0ZM53.5,30.32c-7.17,0-11.13,2.87-11.13,8.08,0,4.64,3.08,7.53,8.03,7.53,4.05,0,6.82-1.86,7.58-5.1l.02-.1h.51l.02.11c.45,2.77,2.31,4.5,4.88,4.5h3.97v-5.5h-2.45v-11.63c0-6.2-3.83-9.48-11.08-9.48-4.9,0-8.12,1.5-10.44,4.85l4.21,3.74c1.12-1.52,2.67-3.04,5.67-3.04s4.47,1.44,4.47,4.28v1.78h-4.27v-.02ZM53.14,41.02c-2.34,0-3.58-1.01-3.58-2.93v-.75c0-1.98,1.59-3.08,4.48-3.08h3.72v3.23c0,2.21-1.73,3.53-4.62,3.53ZM54.04,34.52c-1.93,0-4.23.49-4.23,2.83v.75c0,1.78,1.12,2.68,3.33,2.68,2.74,0,4.38-1.22,4.38-3.28v-2.98h-3.48Z" fill="#312783"/><path d="M83.89,17.3v28.15h-7.6v-28.15h-9.45v-6.75h26.5v6.75s-9.45,0-9.45,0Z" fill="#006"/><path d="M84.02,45.57h-7.85v-28.15h-9.45v-7h26.75v7h-9.45s0,28.15,0,28.15ZM76.42,45.32h7.35v-28.15h9.45v-6.5h-26.25v6.5h9.45s0,28.15,0,28.15Z" fill="#312783"/><path d="M114.05,45.45c-2.65,0-4.55-1.8-5-4.6h-.3c-.8,3.4-3.7,5.2-7.7,5.2-5.25,0-8.15-3.1-8.15-7.65,0-5.55,4.3-8.2,11.25-8.2h4.15v-1.65c0-2.55-1.25-4.15-4.35-4.15s-4.5,1.5-5.65,3.1l-4.4-3.9c2.1-3.1,5.1-5,10.6-5,7.4,0,11.2,3.4,11.2,9.6v11.5h2.45v5.75s-4.1,0-4.1,0ZM108.29,37.5v-3.1h-3.6c-2.85,0-4.35,1.05-4.35,2.95v.75c0,1.9,1.25,2.8,3.45,2.8,2.45,0,4.5-1,4.5-3.4Z" fill="#006"/><path d="M101.04,46.17c-5.1,0-8.28-2.98-8.28-7.78,0-5.37,4.04-8.33,11.38-8.33h4.02v-1.53c0-2.67-1.42-4.03-4.22-4.03-2.96,0-4.46,1.54-5.55,3.05l-.08.11-4.59-4.07.06-.09c2.37-3.5,5.67-5.05,10.7-5.05,7.41,0,11.33,3.36,11.33,9.73v11.38h2.45v6h-4.22c-2.66,0-4.61-1.76-5.11-4.6h-.1c-.82,3.31-3.66,5.2-7.8,5.2h.01ZM104.15,30.32c-7.17,0-11.13,2.87-11.13,8.08,0,4.64,3.08,7.53,8.03,7.53,4.05,0,6.82-1.86,7.58-5.1l.02-.1h.51l.02.11c.45,2.77,2.31,4.5,4.88,4.5h3.97v-5.5h-2.45v-11.63c0-6.2-3.83-9.48-11.08-9.48-4.9,0-8.12,1.5-10.44,4.85l4.21,3.74c1.12-1.52,2.67-3.04,5.67-3.04s4.47,1.44,4.47,4.28v1.78h-4.27v-.02ZM103.79,41.02c-2.34,0-3.58-1.01-3.58-2.93v-.75c0-1.98,1.59-3.08,4.48-3.08h3.72v3.23c0,2.21-1.73,3.53-4.62,3.53ZM104.7,34.52c-1.93,0-4.23.49-4.23,2.83v.75c0,1.78,1.12,2.68,3.33,2.68,2.74,0,4.38-1.22,4.38-3.28v-2.98h-3.48Z" fill="#312783"/></svg>